<svg width="186" height="124" fill="none" xmlns="http://www.w3.org/2000/svg"><path d="M186 0H0v124h186V0z" fill="#0A0A0A"/><path d="M35.753 98.616c-1.013 0-1.996-.134-2.948-.402-.94-.28-1.696-.64-2.27-1.08l1.007-2.23c.55.402 1.202.725 1.959.969a7.36 7.36 0 002.27.366c.842 0 1.465-.122 1.867-.366.403-.256.604-.592.604-1.006a.917.917 0 00-.366-.75c-.231-.207-.537-.372-.915-.494a17.276 17.276 0 00-1.501-.402c-.977-.231-1.776-.463-2.398-.695a3.964 3.964 0 01-1.611-1.116c-.44-.512-.66-1.195-.66-2.048 0-.744.202-1.414.605-2.012.402-.61 1.007-1.09 1.812-1.445.818-.353 1.812-.53 2.984-.53a9.87 9.87 0 012.398.293c.781.195 1.465.475 2.05.84l-.915 2.25c-1.183-.67-2.367-1.005-3.551-1.005-.83 0-1.447.134-1.85.402-.39.268-.585.622-.585 1.06 0 .44.226.769.677.988.464.208 1.166.415 2.106.622.976.232 1.775.464 2.398.695a3.9 3.9 0 011.593 1.098c.451.5.677 1.176.677 2.03a3.5 3.5 0 01-.623 2.011c-.402.598-1.013 1.073-1.83 1.427-.818.354-1.813.53-2.984.53zm16.818-2.963h-5.95l-1.134 2.744h-3.04l5.712-12.803h2.93l5.73 12.803h-3.113l-1.135-2.744zm-.933-2.25l-2.032-4.9-2.032 4.9h4.064zm10.391-5.43v3.383h5.932v2.377h-5.932v4.664h-2.966V85.594h9.685v2.378h-6.719zm19.565 8.046v2.378H71.67V85.594h9.685v2.378h-6.737v2.78h5.95v2.304h-5.95v2.963h6.975zm15.028-10.425v12.803h-2.966v-5.25h-5.822v5.25H84.87V85.594h2.966v5.048h5.821v-5.047h2.966zm10.153 13.022c-1.33 0-2.532-.286-3.606-.86a6.496 6.496 0 01-2.509-2.359c-.597-1.012-.897-2.146-.897-3.401 0-1.256.3-2.384.897-3.384a6.452 6.452 0 012.509-2.377c1.074-.574 2.276-.86 3.606-.86 1.331 0 2.526.286 3.588.86a6.442 6.442 0 012.508 2.377c.611 1 .916 2.128.916 3.384 0 1.255-.305 2.39-.916 3.401a6.487 6.487 0 01-2.508 2.36c-1.062.573-2.257.86-3.588.86zm0-2.524c.757 0 1.44-.17 2.05-.512a3.733 3.733 0 001.428-1.463c.354-.622.531-1.329.531-2.121 0-.793-.177-1.5-.531-2.122a3.607 3.607 0 00-1.428-1.445 4.01 4.01 0 00-2.05-.53c-.756 0-1.44.177-2.05.53a3.745 3.745 0 00-1.447 1.445c-.341.622-.512 1.329-.512 2.122 0 .792.171 1.5.512 2.121.354.622.837 1.11 1.447 1.463.61.342 1.294.512 2.05.512zm15.85 2.524c-1.831 0-3.259-.506-4.284-1.518-1.013-1.012-1.52-2.457-1.52-4.334v-7.17h2.966v7.06c0 2.292.952 3.438 2.856 3.438.927 0 1.635-.274 2.123-.823.489-.56.733-1.432.733-2.615v-7.06h2.929v7.17c0 1.877-.513 3.322-1.538 4.334-1.013 1.012-2.435 1.518-4.265 1.518zm13.859 0a10.82 10.82 0 01-2.947-.402c-.939-.28-1.696-.64-2.27-1.08l1.007-2.23c.549.402 1.202.725 1.959.969a7.36 7.36 0 002.27.366c.842 0 1.464-.122 1.867-.366.403-.256.604-.592.604-1.006a.918.918 0 00-.366-.75c-.232-.207-.537-.372-.915-.494a17.322 17.322 0 00-1.501-.402c-.977-.231-1.776-.463-2.399-.695a3.97 3.97 0 01-1.611-1.116c-.439-.512-.659-1.195-.659-2.048 0-.744.202-1.414.604-2.012.403-.61 1.007-1.09 1.813-1.445.818-.353 1.812-.53 2.984-.53.818 0 1.617.098 2.398.293.781.195 1.465.475 2.05.84l-.915 2.25c-1.184-.67-2.367-1.005-3.551-1.005-.83 0-1.447.134-1.849.402-.391.268-.586.622-.586 1.06 0 .44.226.769.677.988.464.208 1.166.415 2.105.622.977.232 1.776.464 2.399.695a3.897 3.897 0 011.592 1.098c.452.5.678 1.176.678 2.03a3.5 3.5 0 01-.623 2.011c-.403.598-1.013 1.073-1.83 1.427-.818.354-1.813.53-2.985.53zm18.302-2.597v2.378h-9.922V85.594h9.684v2.378h-6.737v2.78h5.95v2.304h-5.95v2.963h6.975z" fill="#fff"/><path fill-rule="evenodd" clip-rule="evenodd" d="M49.063 58.599l44.013-43.97.004.005L112 33.48v-11.48h7v18.454l18.218 18.148-5.696 5.69-38.438-38.292L54.758 64.29l-5.696-5.69zm37.347-8.484h13.547v23.41H86.41v-23.41z" fill="#fff"/></svg>